# xmcd
# Track frame offsets:
# 150
# 17448
# 35426
# 49290
# 66672
# 83842
# 96085
# 109773
# 127260
# 138721
#
# Disc length: 2110 seconds
# Revision: 0
# Processed by: cddbd v1.4PL0 Copyright (c) Steve Scherf et al.
# Submitted via: VisiTrax 2.9.6.190 - For more info visit www.synapsa.com
#
DISCID=90083c0a
DTITLE=Chely Wright - Let Me In
DYEAR=1997
DGENRE=
TTITLE0=Shut Up And Drive
TTITLE1=Let Me In
TTITLE2=Your Woman Misses Her Man
TTITLE3=Emma Jean`s Guitar
TTITLE4=I Already Do
TTITLE5=Just Another Heaetache
TTITLE6=Is It Love Yey??
TTITLE7=Before You Lie
TTITLE8=Feelin` Singel and Seein` Double
TTITLE9=10LB. Heart
EXTD=
EXTT0=
EXTT1=
EXTT2=
EXTT3=
EXTT4=
EXTT5=
EXTT6=
EXTT7=
EXTT8=
EXTT9=
PLAYORDER=
